<?xml version="1.0" encoding="utf-8"?>
<!-- Generator: Adobe Illustrator 23.0.0, SVG Export Plug-In . SVG Version: 6.00 Build 0)  -->
<svg version="1.1" id="Calque_1" xmlns="http://www.w3.org/2000/svg" xmlns:xlink="http://www.w3.org/1999/xlink" x="0px" y="0px"
	 viewBox="0 0 21.7 23.6" style="enable-background:new 0 0 21.7 23.6;" xml:space="preserve">
<style type="text/css">
	.st0{fill:none;stroke:#FFFFFF;stroke-miterlimit:10;}
</style>
<title>pictoAGAV_1</title>
<g>
	<g id="Calque_1-2">
		<path class="st0" d="M15.3,2.7L5.5,4.6C5.5,4.8,5.4,5.1,5.4,5.4h11C16.2,4.4,15.9,3.5,15.3,2.7z"/>
		<path class="st0" d="M14,1.5c-2.5-1.7-5.8-1.2-7.6,1.3C6.4,2.8,6.3,2.9,6.2,3L14,1.5z"/>
		<path class="st0" d="M5.4,6.8c0.3,2.8,2.7,5,5.5,5c2.8,0,5.2-2.2,5.5-5L5.4,6.8z"/>
		<path class="st0" d="M8.1,19.6c-1.2,0-2.1,1-2.1,2.1c0,0,0,0,0,0v1.4h6.9v-3.5H8.1z"/>
		<path class="st0" d="M8.1,18.2h4.9v-4.8c-0.7-0.1-1.4-0.2-2.1-0.2c-9.3,0-10.4,9.9-10.4,9.9h4.2v-1.4C4.6,19.8,6.2,18.2,8.1,18.2z
			"/>
		<path class="st0" d="M14.3,13.7v9.4h6.9C21.3,23.1,20.4,15.8,14.3,13.7z"/>
	</g>
</g>
</svg>
