<?xml version="1.0" encoding="utf-8"?>
<!-- Generator: Adobe Illustrator 23.0.0, SVG Export Plug-In . SVG Version: 6.00 Build 0)  -->
<svg version="1.1" id="Calque_1" xmlns="http://www.w3.org/2000/svg" xmlns:xlink="http://www.w3.org/1999/xlink" x="0px" y="0px"
	 viewBox="0 0 215.8 219.8" style="enable-background:new 0 0 215.8 219.8;" xml:space="preserve">
<style type="text/css">
	.st0{fill:none;stroke:#FFFFFF;stroke-width:8;stroke-miterlimit:10;}
</style>
<title>PictoCreditemprunteur_1</title>
<g>
	<g id="Calque_1-2">
		<path class="st0" d="M154,109.9c-0.1-7.3-6.1-13.1-13.4-12.9c-7.3,0.1-13.1,6.1-12.9,13.4c0.1,7.2,6,12.9,13.2,12.9
			C148.2,123.3,154.1,117.3,154,109.9z"/>
		<path class="st0" d="M28.9,217.3h158.1c14.7-0.1,26.5-12.2,26.4-26.8c0,0,0,0,0,0V29.4c0-14.8-11.8-26.9-26.4-26.9H28.9
			C14.2,2.6,2.4,14.7,2.5,29.3c0,0,0,0,0,0v161.1C2.5,205.3,14.3,217.3,28.9,217.3z M15.7,156.9h13.2v-13.4H15.7V76.3h13.2V62.9
			H15.7V29.4C15.6,22,21.5,16,28.9,15.9h158.1c7.3,0.1,13.2,6.1,13.2,13.4v161.1c0.1,7.3-5.8,13.4-13.2,13.4H28.9
			c-7.3-0.1-13.2-6.1-13.2-13.4L15.7,156.9z"/>
		<path class="st0" d="M35.4,190.5h145c3.7,0,6.6-3,6.6-6.7c0,0,0,0,0,0l0,0V36.1c0-3.7-2.9-6.7-6.6-6.7c0,0,0,0,0,0h-145
			c-3.7,0-6.6,3-6.6,6.7c0,0,0,0,0,0l0,0v26.8H42v13.4H28.9v67.1H42v13.4H28.9v26.9C28.8,187.4,31.7,190.4,35.4,190.5z M140.8,83.1
			c14.8-0.3,27.1,11.5,27.3,26.3c0.3,14.8-11.5,27.1-26.3,27.3s-27.1-11.5-27.3-26.3c0-0.2,0-0.3,0-0.5
			C114.3,95.2,126.1,83.2,140.8,83.1C140.8,83.1,140.8,83.1,140.8,83.1z"/>
	</g>
</g>
</svg>
