<?xml version="1.0" encoding="utf-8"?>
<!-- Generator: Adobe Illustrator 21.0.2, SVG Export Plug-In . SVG Version: 6.00 Build 0)  -->
<svg version="1.1" id="Calque_1" xmlns="http://www.w3.org/2000/svg" xmlns:xlink="http://www.w3.org/1999/xlink" x="0px" y="0px"
	 viewBox="0 0 286.9 283.4" style="enable-background:new 0 0 286.9 283.4;" xml:space="preserve">
<style type="text/css">
	.st0{fill:url(#SVGID_1_);}
	.st1{fill:url(#SVGID_2_);}
	.st2{fill:url(#SVGID_3_);}
</style>
<g>
	<linearGradient id="SVGID_1_" gradientUnits="userSpaceOnUse" x1="-144.8773" y1="-21.3943" x2="516.5904" y2="280.9171">
		<stop  offset="0" style="stop-color:#00BAEE"/>
		<stop  offset="9.957135e-03" style="stop-color:#00B8EC"/>
		<stop  offset="0.3502" style="stop-color:#0688B1"/>
		<stop  offset="0.6405" style="stop-color:#0A6586"/>
		<stop  offset="0.8663" style="stop-color:#0D4F6C"/>
		<stop  offset="1" style="stop-color:#0E4762"/>
	</linearGradient>
	<path class="st0" d="M267.7,203.7c10.7-50.6-21.5-93-76.8-104.8c-0.4-0.1-16.3-3.3-16.6-3.4l14.5,7.6
		C237.9,113.2,276.6,158.6,267.7,203.7z"/>
	<linearGradient id="SVGID_2_" gradientUnits="userSpaceOnUse" x1="-165.2716" y1="23.229" x2="496.1961" y2="325.5404">
		<stop  offset="0" style="stop-color:#00BAEE"/>
		<stop  offset="9.957135e-03" style="stop-color:#00B8EC"/>
		<stop  offset="0.3502" style="stop-color:#0688B1"/>
		<stop  offset="0.6405" style="stop-color:#0A6586"/>
		<stop  offset="0.8663" style="stop-color:#0D4F6C"/>
		<stop  offset="1" style="stop-color:#0E4762"/>
	</linearGradient>
	<path class="st1" d="M235.7,104c0,0,8.8,12,10.4,16.1c29.8,25.9,38.2,67.1,17.6,100.4c-24.4,39.5-80.2,52.8-124.7,29.8
		c-4.1-2.1-8-4.5-11.7-7.1c-8-6-15.8-13.8-22.2-22.5c-9-13.2-13.8-28.4-13.9-43.7c-1-28,19.1-36,42-36.1
		c29.4-0.1,63.5,12.7,63.5,12.7l0,0c0.1,0,0.1,0,0.1,0l3.7-6c0,0-146.3-48.2-174.4-139.5l-5.2,4.4c0,0-40.5,191.2,113.4,249.9
		c49.5,19.9,110.2,6.2,137.1-37.5C297.2,183.1,280.2,130.8,235.7,104z"/>
	<linearGradient id="SVGID_3_" gradientUnits="userSpaceOnUse" x1="-134.1745" y1="-44.8125" x2="527.2933" y2="257.4989">
		<stop  offset="0" style="stop-color:#00BAEE"/>
		<stop  offset="9.957135e-03" style="stop-color:#00B8EC"/>
		<stop  offset="0.3502" style="stop-color:#0688B1"/>
		<stop  offset="0.6405" style="stop-color:#0A6586"/>
		<stop  offset="0.8663" style="stop-color:#0D4F6C"/>
		<stop  offset="1" style="stop-color:#0E4762"/>
	</linearGradient>
	<path class="st2" d="M94.5,87c2.5,3.2,5.7,5.9,9.6,7.9c4.6,2.4,9.5,3.5,14.4,3.6c10.7,0.2,21.2-4.9,26.8-14
		c8.2-13.2,3.1-30.1-11.4-37.6c-14.5-7.5-32.9-2.8-41.1,10.5C87,67,88.1,78.5,94.6,86.9C94.6,87,94.6,87,94.5,87z"/>
</g>
</svg>
