<?xml version="1.0" encoding="utf-8"?>
<!-- Generator: Adobe Illustrator 26.2.1, SVG Export Plug-In . SVG Version: 6.00 Build 0)  -->
<svg version="1.1" id="Layer_7" xmlns="http://www.w3.org/2000/svg" xmlns:xlink="http://www.w3.org/1999/xlink" x="0px" y="0px"
	 viewBox="0 0 849.6 119.3" style="enable-background:new 0 0 849.6 119.3;" xml:space="preserve">
<style type="text/css">
	.st0{fill:#C49129;}
	.st1{fill:url(#SVGID_1_);}
	.st2{fill:url(#SVGID_00000039841927524125337800000011930900492558878904_);}
	.st3{fill:url(#SVGID_00000042723280532897092140000000856965646926792615_);}
	.st4{fill:url(#SVGID_00000108999664991753285900000006613713688995276445_);}
	.st5{fill:url(#SVGID_00000064314127607923190710000017299155805096722614_);}
	.st6{fill:url(#SVGID_00000158723277464604949960000003120576658761181842_);}
	.st7{fill:url(#SVGID_00000010277539229272506150000017853377750953577148_);}
	.st8{fill:url(#SVGID_00000151540117795169118190000011377374579124744075_);}
	.st9{fill:url(#SVGID_00000058561133041207199730000012838535864924284807_);}
	.st10{fill:url(#SVGID_00000018959150490909364910000001234675012769746819_);}
	.st11{fill:url(#SVGID_00000106120723717074703510000016538455494986786223_);}
	.st12{fill:url(#SVGID_00000093146959271073597990000002801336942111815313_);}
	.st13{fill:url(#SVGID_00000121967177849200542230000008961239158763001016_);}
	.st14{fill:url(#SVGID_00000007424361293434515030000006090176524507468727_);}
	.st15{fill:url(#SVGID_00000065048023695878825480000003609695871167911303_);}
</style>
<g>
	<polygon class="st0" points="535.5,74.4 536.9,81 545.4,80.5 538.3,84.4 540.1,90.5 535.1,86.7 530.6,89.6 532.4,84.1 524.2,79.1 
		533.5,80.9 	"/>
	<polygon class="st0" points="282,21.1 283.5,27.7 291.9,27.2 284.8,31.1 286.6,37.2 281.6,33.4 277.2,36.3 278.9,30.8 270.8,25.8 
		280.1,27.6 	"/>
	
		<radialGradient id="SVGID_1_" cx="7706.1978" cy="51.2489" r="32.0609" gradientTransform="matrix(-1 0 0 -1 8189.5464 119.7323)" gradientUnits="userSpaceOnUse">
		<stop  offset="7.376320e-02" style="stop-color:#DEB84A"/>
		<stop  offset="0.5114" style="stop-color:#C49129"/>
		<stop  offset="1" style="stop-color:#A87029"/>
	</radialGradient>
	<path class="st1" d="M487.7,74l-5.6,4.1l2.2-6.6l-8.2-4.8l9.5,0.6l2.1-8.5l2.3,8.6l5.4,0.3l-4.1,3.7l4.1,9.9L487.7,74z M488.9,68.7
		l-1.1-4.2l-1.1,4.3l-4.8-0.3l4,2.4l-1.2,3.6l3-2.2l3.7,3.5l-2-4.7l2.3-2.1L488.9,68.7z"/>
	
		<radialGradient id="SVGID_00000047058345335124561140000000399221115827303081_" cx="8182.2573" cy="94.0816" r="32.0609" gradientTransform="matrix(-1 0 0 -1 8189.5464 119.7323)" gradientUnits="userSpaceOnUse">
		<stop  offset="7.376320e-02" style="stop-color:#DEB84A"/>
		<stop  offset="0.5114" style="stop-color:#C49129"/>
		<stop  offset="1" style="stop-color:#A87029"/>
	</radialGradient>
	<path style="fill:url(#SVGID_00000047058345335124561140000000399221115827303081_);" d="M11.6,31.2L6,35.3l2.2-6.6L0,23.8l9.5,0.6
		l2.1-8.5l2.3,8.6l5.4,0.3l-4.1,3.7l4.1,9.9L11.6,31.2z M12.8,25.8l-1.1-4.2l-1.1,4.3l-4.8-0.3l4,2.4l-1.2,3.6l3-2.2l3.7,3.5l-2-4.7
		l2.3-2.1L12.8,25.8z"/>
	
		<radialGradient id="SVGID_00000078764909952008901840000008591046917139987335_" cx="8154.354" cy="24.4143" r="32.0609" gradientTransform="matrix(-1 0 0 -1 8189.5464 119.7323)" gradientUnits="userSpaceOnUse">
		<stop  offset="7.376320e-02" style="stop-color:#DEB84A"/>
		<stop  offset="0.5114" style="stop-color:#C49129"/>
		<stop  offset="1" style="stop-color:#A87029"/>
	</radialGradient>
	<path style="fill:url(#SVGID_00000078764909952008901840000008591046917139987335_);" d="M39.5,100.8l-5.6,4.1l2.2-6.6l-8.2-4.8
		l9.5,0.6l2.1-8.5l2.3,8.6l5.4,0.3l-4.1,3.7l4.1,9.9L39.5,100.8z M40.7,95.5l-1.1-4.2l-1.1,4.3l-4.8-0.3l4,2.4l-1.2,3.6l3-2.2
		l3.7,3.5l-2-4.7l2.3-2.1L40.7,95.5z"/>
	
		<radialGradient id="SVGID_00000152233137018600619500000012371981730139847103_" cx="8007.1216" cy="24.4143" r="32.0609" gradientTransform="matrix(-1 0 0 -1 8189.5464 119.7323)" gradientUnits="userSpaceOnUse">
		<stop  offset="7.376320e-02" style="stop-color:#DEB84A"/>
		<stop  offset="0.5114" style="stop-color:#C49129"/>
		<stop  offset="1" style="stop-color:#A87029"/>
	</radialGradient>
	<path style="fill:url(#SVGID_00000152233137018600619500000012371981730139847103_);" d="M186.8,100.8l-5.6,4.1l2.2-6.6l-8.2-4.8
		l9.5,0.6l2.1-8.5l2.3,8.6l5.4,0.3l-4.1,3.7l4.1,9.9L186.8,100.8z M187.9,95.5l-1.1-4.2l-1.1,4.3l-4.8-0.3l4,2.4l-1.2,3.6l3-2.2
		l3.7,3.5l-2-4.7l2.3-2.1L187.9,95.5z"/>
	
		<radialGradient id="SVGID_00000083794141326402227760000017479235282246229163_" cx="8110.248" cy="76.8654" r="27.1211" gradientTransform="matrix(-1 0 0 -1 8189.5464 119.7323)" gradientUnits="userSpaceOnUse">
		<stop  offset="0" style="stop-color:#DEB84A"/>
		<stop  offset="0.4535" style="stop-color:#C49129"/>
		<stop  offset="1" style="stop-color:#A87029"/>
	</radialGradient>
	<path style="fill:url(#SVGID_00000083794141326402227760000017479235282246229163_);" d="M67.2,38.8L61.9,34l7,0.2l2.9-9.7l2.1,9.8
		l8.8,0.1l-7,4.8l2.6,8.7l-7.1-5.4l-8.9,7.1L67.2,38.8z M75.1,43.3l-1.4-4.7l3.5-2.4l-4.7-0.1l-1-4.6L70.2,36l-3.6-0.1l2.8,2.5
		L67,43.8l4.3-3.4L75.1,43.3z"/>
	
		<radialGradient id="SVGID_00000070799208019623420700000012883891129688309941_" cx="8038.3335" cy="64.3148" r="27.1211" gradientTransform="matrix(-1 0 0 -1 8189.5464 119.7323)" gradientUnits="userSpaceOnUse">
		<stop  offset="0" style="stop-color:#DEB84A"/>
		<stop  offset="0.4535" style="stop-color:#C49129"/>
		<stop  offset="1" style="stop-color:#A87029"/>
	</radialGradient>
	<path style="fill:url(#SVGID_00000070799208019623420700000012883891129688309941_);" d="M139.2,51.4l-5.4-4.9l7,0.2l2.9-9.7
		l2.1,9.8l8.8,0.1l-7,4.8l2.6,8.7l-7.1-5.4l-8.9,7.1L139.2,51.4z M147.1,55.9l-1.4-4.7l3.5-2.4l-4.7-0.1l-1-4.6l-1.4,4.5l-3.6-0.1
		l2.8,2.5l-2.4,5.4l4.3-3.4L147.1,55.9z"/>
	
		<radialGradient id="SVGID_00000169554799393591458680000005092800237791939231_" cx="7911.6445" cy="35.3994" r="27.1211" gradientTransform="matrix(-1 0 0 -1 8189.5464 119.7323)" gradientUnits="userSpaceOnUse">
		<stop  offset="0" style="stop-color:#DEB84A"/>
		<stop  offset="0.4535" style="stop-color:#C49129"/>
		<stop  offset="1" style="stop-color:#A87029"/>
	</radialGradient>
	<path style="fill:url(#SVGID_00000169554799393591458680000005092800237791939231_);" d="M265.9,80.3l-5.4-4.9l7,0.2l2.9-9.7
		l2.1,9.8l8.8,0.1l-7,4.8l2.6,8.7l-7.1-5.4l-8.9,7.1L265.9,80.3z M273.7,84.8l-1.4-4.7l3.5-2.4l-4.7-0.1l-1-4.6l-1.4,4.5l-3.6-0.1
		l2.8,2.5l-2.4,5.4l4.3-3.4L273.7,84.8z"/>
	
		<radialGradient id="SVGID_00000039826793425624870970000013662975998528938134_" cx="7844.3057" cy="66.921" r="27.1211" gradientTransform="matrix(-1 0 0 -1 8189.5464 119.7323)" gradientUnits="userSpaceOnUse">
		<stop  offset="0" style="stop-color:#DEB84A"/>
		<stop  offset="0.4535" style="stop-color:#C49129"/>
		<stop  offset="1" style="stop-color:#A87029"/>
	</radialGradient>
	<path style="fill:url(#SVGID_00000039826793425624870970000013662975998528938134_);" d="M333.2,48.8l-5.4-4.9l7,0.2l2.9-9.7
		l2.1,9.8l8.8,0.1l-7,4.8l2.6,8.7l-7.1-5.4l-8.9,7.1L333.2,48.8z M341.1,53.3l-1.4-4.7l3.5-2.4l-4.7-0.1l-1-4.6l-1.4,4.5l-3.6-0.1
		l2.8,2.5l-2.4,5.4l4.3-3.4L341.1,53.3z"/>
	
		<radialGradient id="SVGID_00000033347181332096081540000008982007449443310270_" cx="7604.3882" cy="78.9165" r="27.1211" gradientTransform="matrix(-1 0 0 -1 8189.5464 119.7323)" gradientUnits="userSpaceOnUse">
		<stop  offset="0" style="stop-color:#DEB84A"/>
		<stop  offset="0.4535" style="stop-color:#C49129"/>
		<stop  offset="1" style="stop-color:#A87029"/>
	</radialGradient>
	<path style="fill:url(#SVGID_00000033347181332096081540000008982007449443310270_);" d="M573.1,36.8l-5.4-4.9l7,0.2l2.9-9.7
		l2.1,9.8l8.8,0.1l-7,4.8l2.6,8.7l-7.1-5.4l-8.9,7.1L573.1,36.8z M581,41.3l-1.4-4.7l3.5-2.4l-4.7-0.1l-1-4.6L576,34l-3.6-0.1
		l2.8,2.5l-2.4,5.4l4.3-3.4L581,41.3z"/>
	
		<radialGradient id="SVGID_00000106119407695787623180000000910120361363437750_" cx="7350.5005" cy="91.4671" r="27.1211" gradientTransform="matrix(-1 0 0 -1 8189.5464 119.7323)" gradientUnits="userSpaceOnUse">
		<stop  offset="0" style="stop-color:#DEB84A"/>
		<stop  offset="0.4535" style="stop-color:#C49129"/>
		<stop  offset="1" style="stop-color:#A87029"/>
	</radialGradient>
	<path style="fill:url(#SVGID_00000106119407695787623180000000910120361363437750_);" d="M827,24.2l-5.4-4.9l7,0.2l2.9-9.7l2.1,9.8
		l8.8,0.1l-7,4.8l2.6,8.7l-7.1-5.4l-8.9,7.1L827,24.2z M834.9,28.7l-1.4-4.7l3.5-2.4l-4.7-0.1l-1-4.6l-1.4,4.5l-3.6-0.1l2.8,2.5
		l-2.4,5.4l4.3-3.4L834.9,28.7z"/>
	
		<radialGradient id="SVGID_00000018931654384630840500000005529302367875131525_" cx="7964.9268" cy="91.8997" r="28.3397" gradientTransform="matrix(-1 0 0 -1 8189.5464 119.7323)" gradientUnits="userSpaceOnUse">
		<stop  offset="7.376320e-02" style="stop-color:#DEB84A"/>
		<stop  offset="0.5114" style="stop-color:#C49129"/>
		<stop  offset="1" style="stop-color:#A87029"/>
	</radialGradient>
	<path style="fill:url(#SVGID_00000018931654384630840500000005529302367875131525_);" d="M228.5,32.7l-5,3.6l1.9-5.9l-7.2-4.3
		l8.4,0.5l1.9-7.5l2,7.6l4.8,0.2l-3.6,3.3l3.7,8.7L228.5,32.7z M229.5,28l-1-3.8l-1,3.8l-4.2-0.3l3.6,2.1l-1,3.1l2.7-2l3.3,3.1
		l-1.7-4.2l2.1-1.9L229.5,28z"/>
	
		<radialGradient id="SVGID_00000000909953793373725870000016489566718686186369_" cx="7470.9844" cy="51.0756" r="28.3397" gradientTransform="matrix(-1 0 0 -1 8189.5464 119.7323)" gradientUnits="userSpaceOnUse">
		<stop  offset="7.376320e-02" style="stop-color:#DEB84A"/>
		<stop  offset="0.5114" style="stop-color:#C49129"/>
		<stop  offset="1" style="stop-color:#A87029"/>
	</radialGradient>
	<path style="fill:url(#SVGID_00000000909953793373725870000016489566718686186369_);" d="M722.4,73.5l-5,3.6l1.9-5.9l-7.2-4.3
		l8.4,0.5l1.9-7.5l2,7.6l4.8,0.2l-3.6,3.3l3.7,8.7L722.4,73.5z M723.4,68.8l-1-3.8l-1,3.8l-4.2-0.3l3.6,2.1l-1,3.1l2.7-2l3.3,3.1
		l-1.7-4.2l2.1-1.9L723.4,68.8z"/>
	
		<radialGradient id="SVGID_00000158728712816690865180000016109210824016799641_" cx="7790.9463" cy="111.1305" r="28.3397" gradientTransform="matrix(-1 0 0 -1 8189.5464 119.7323)" gradientUnits="userSpaceOnUse">
		<stop  offset="7.376320e-02" style="stop-color:#DEB84A"/>
		<stop  offset="0.5114" style="stop-color:#C49129"/>
		<stop  offset="1" style="stop-color:#A87029"/>
	</radialGradient>
	<path style="fill:url(#SVGID_00000158728712816690865180000016109210824016799641_);" d="M402.4,13.5l-5,3.6l1.9-5.9L392.2,7
		l8.4,0.5l1.9-7.5l2,7.6l4.8,0.2l-3.6,3.3l3.7,8.7L402.4,13.5z M403.5,8.8l-1-3.8l-1,3.8l-4.2-0.3l3.6,2.1l-1,3.1l2.7-2l3.3,3.1
		l-1.7-4.2l2.1-1.9L403.5,8.8z"/>
	
		<radialGradient id="SVGID_00000137116417717567566680000015052786039236595629_" cx="7799.499" cy="29.9616" r="28.3397" gradientTransform="matrix(-1 0 0 -1 8189.5464 119.7323)" gradientUnits="userSpaceOnUse">
		<stop  offset="7.376320e-02" style="stop-color:#DEB84A"/>
		<stop  offset="0.5114" style="stop-color:#C49129"/>
		<stop  offset="1" style="stop-color:#A87029"/>
	</radialGradient>
	<path style="fill:url(#SVGID_00000137116417717567566680000015052786039236595629_);" d="M393.9,94.6l-5,3.6l1.9-5.9l-7.2-4.3
		l8.4,0.5l1.9-7.5l2,7.6l4.8,0.2l-3.6,3.3l3.7,8.7L393.9,94.6z M394.9,89.9l-1-3.8l-1,3.8l-4.2-0.3l3.6,2.1l-1,3.1l2.7-2l3.3,3.1
		l-1.7-4.2l2.1-1.9L394.9,89.9z"/>
	
		<radialGradient id="SVGID_00000070809734255153662840000009678414849860251558_" cx="7563.2354" cy="20.0396" r="28.3397" gradientTransform="matrix(-1 0 0 -1 8189.5464 119.7323)" gradientUnits="userSpaceOnUse">
		<stop  offset="7.376320e-02" style="stop-color:#DEB84A"/>
		<stop  offset="0.5114" style="stop-color:#C49129"/>
		<stop  offset="1" style="stop-color:#A87029"/>
	</radialGradient>
	<path style="fill:url(#SVGID_00000070809734255153662840000009678414849860251558_);" d="M630.2,104.6l-5,3.6l1.9-5.9l-7.2-4.3
		l8.4,0.5l1.9-7.5l2,7.6l4.8,0.2l-3.6,3.3l3.7,8.7L630.2,104.6z M631.2,99.9l-1-3.8l-1,3.8l-4.2-0.3l3.6,2.1l-1,3.1l2.7-2l3.3,3.1
		l-1.7-4.2l2.1-1.9L631.2,99.9z"/>
</g>
</svg>
