<?xml version="1.0" encoding="utf-8"?>
<!-- Generator: Adobe Illustrator 26.2.1, SVG Export Plug-In . SVG Version: 6.00 Build 0)  -->
<svg version="1.1" id="Layer_7" xmlns="http://www.w3.org/2000/svg" xmlns:xlink="http://www.w3.org/1999/xlink" x="0px" y="0px"
	 viewBox="0 0 54.2 13.2" style="enable-background:new 0 0 54.2 13.2;" xml:space="preserve">
<style type="text/css">
	.st0{fill:#FFFFFF;}
</style>
<path class="st0" d="M5.2,5.7c0-0.1,0-0.1,0-0.2c0,0,0-0.1,0-0.1c0,0,0-0.1,0-0.1c0,0,0-0.1,0-0.1c0,0,0-0.1,0-0.1
	c0,0.1-0.1,0.3-0.1,0.4C5,5.6,5,5.8,4.9,5.9l-1.5,3L1.9,5.8c0-0.1-0.1-0.2-0.1-0.4c0-0.1-0.1-0.2-0.1-0.4c0,0.1,0,0.2,0,0.2
	c0,0.1,0,0.2,0,0.2c0,0,0,0.1,0,0.2c0,0.1,0,0.1,0,0.2L0.9,8.7H0.1l1.3-5.9l1.7,3.6c0,0.1,0.1,0.1,0.1,0.2c0,0.1,0.1,0.1,0.1,0.2
	c0,0,0,0.1,0,0.1c0,0,0,0.1,0,0.1c0,0,0,0.1,0,0.1c0,0,0,0.1,0,0.1c0,0,0-0.1,0.1-0.1c0,0,0-0.1,0.1-0.1c0,0,0,0,0-0.1
	c0,0,0,0,0-0.1c0-0.1,0.1-0.1,0.1-0.2c0-0.1,0.1-0.1,0.1-0.2l1.6-3.6l1.4,5.9H5.9L5.3,5.9C5.3,5.8,5.3,5.7,5.2,5.7z M11.1,7.2H8.9
	L8.2,8.7h-1L10,2.8l2.8,5.9h-1L11.1,7.2z M9.9,4.8c0,0.1-0.1,0.2-0.1,0.3L9.2,6.5h1.6l-0.6-1.3c0-0.1-0.1-0.2-0.1-0.3
	c0-0.1-0.1-0.2-0.1-0.3c0,0,0,0,0-0.1c0,0,0,0,0-0.1C10,4.6,9.9,4.7,9.9,4.8z M17.4,3.9c-0.3-0.1-0.6-0.2-0.9-0.2
	c-0.1,0-0.1,0-0.2,0c-0.1,0-0.2,0-0.2,0c-0.5,0.1-0.9,0.3-1.2,0.7c-0.3,0.4-0.4,0.8-0.4,1.3c0,0,0,0,0,0.1c0,0,0,0,0,0.1
	c0,0,0,0,0,0.1s0,0,0,0.1c0,0.4,0.2,0.8,0.4,1.2c0.2,0.4,0.6,0.6,1,0.8c0,0,0.1,0,0.1,0c0,0,0.1,0,0.2,0c0,0,0.1,0,0.1,0
	c0,0,0.1,0,0.1,0c0.3,0,0.6-0.1,1-0.2c0.3-0.1,0.6-0.3,0.9-0.5v1.1c-0.2,0.1-0.4,0.2-0.6,0.3c-0.2,0.1-0.4,0.1-0.6,0.2
	c-0.1,0-0.2,0-0.3,0c-0.1,0-0.2,0-0.3,0c-0.7,0-1.4-0.2-2-0.7c-0.6-0.5-0.9-1.1-1-2c0,0,0,0,0-0.1c0,0,0,0,0-0.1c0,0,0,0,0-0.1
	c0,0,0,0,0-0.1c0-0.8,0.2-1.4,0.7-2c0.5-0.6,1.1-0.9,1.9-1c0,0,0,0,0.1,0c0,0,0,0,0,0c0.1,0,0.1,0,0.2,0c0.1,0,0.1,0,0.1,0
	c0.3,0,0.6,0.1,0.9,0.2c0.3,0.1,0.6,0.2,0.9,0.4l0,0.9C18,4.2,17.7,4,17.4,3.9z M19.5,3h0.9v5.7h-0.9V3z M22.5,8.7h-0.9V3H23
	c0.1,0,0.1,0,0.2,0c0.1,0,0.1,0,0.2,0c0.2,0,0.4,0,0.6,0.1c0.2,0,0.4,0.2,0.5,0.3c0.1,0.1,0.2,0.3,0.3,0.5c0.1,0.2,0.1,0.4,0.1,0.5
	c0,0,0,0.1,0,0.1c0,0,0,0.1,0,0.1c0,0.5-0.1,0.8-0.3,1.1c-0.2,0.2-0.5,0.4-1,0.5l2,2.6h-1l-1.9-2.6h-0.1V8.7z M22.6,5.4
	C22.6,5.4,22.6,5.4,22.6,5.4c0.1,0,0.1,0,0.1,0c0,0,0,0,0.1,0c0,0,0,0,0.1,0c0,0,0.1,0,0.1,0c0,0,0.1,0,0.1,0c0.2,0,0.4-0.1,0.6-0.2
	C23.9,5.2,24,5,24,4.7V4.6c0-0.4-0.1-0.6-0.4-0.7c-0.2-0.1-0.5-0.1-0.8-0.1h-0.2V5.4z M26.4,3h1l1.3,3c0.1,0.1,0.1,0.3,0.2,0.5
	c0,0.2,0.1,0.3,0.1,0.5c0-0.2,0.1-0.3,0.1-0.5c0-0.2,0.1-0.3,0.2-0.5l1.3-3h1l-2.5,5.9L26.4,3z M31.8,3h0.9v5.7h-0.9V3z M34,3h3.2
	v0.8h-2.3v1.4h2.3V6h-2.3v1.8h2.3v0.8H34V3z M0.3,11l-0.2,0.5H0l0.7-1.6l0.7,1.6H1.2L1,11H0.3z M0.7,10.2l-0.3,0.8H1L0.7,10.2z
	 M2.1,10.8C2.1,10.7,2.1,10.7,2.1,10.8C2,10.7,2,10.6,2,10.6c0,0-0.1,0-0.1,0c0,0-0.1,0.1-0.1,0.1c0,0,0,0.1,0,0.1
	c0,0,0.1,0,0.1,0.1c0,0,0.1,0,0.1,0c0,0,0.1,0,0.1,0.1c0,0,0,0,0.1,0.1c0,0,0,0.1,0,0.1c0,0.1,0,0.2-0.1,0.2C2.1,11.5,2,11.6,2,11.6
	c-0.1,0-0.2,0-0.2-0.1c-0.1,0-0.1-0.1-0.1-0.2l0.1,0c0,0.1,0,0.1,0.1,0.1c0,0,0.1,0.1,0.2,0.1c0.1,0,0.1,0,0.2-0.1
	c0,0,0.1-0.1,0.1-0.2c0-0.1,0-0.1,0-0.1c0,0-0.1,0-0.1-0.1c0,0-0.1,0-0.1,0c0,0-0.1,0-0.1,0c0,0,0,0-0.1-0.1s0-0.1,0-0.1
	c0-0.1,0-0.1,0.1-0.2c0.1,0,0.1-0.1,0.2-0.1c0,0,0.1,0,0.1,0C2.2,10.6,2.2,10.7,2.1,10.8L2.1,10.8z M3.2,10.8
	C3.1,10.7,3.1,10.7,3.2,10.8C3.1,10.7,3,10.6,3,10.6c0,0-0.1,0-0.1,0c0,0-0.1,0.1-0.1,0.1c0,0,0,0.1,0,0.1c0,0,0.1,0,0.1,0.1
	c0,0,0.1,0,0.1,0c0,0,0.1,0,0.1,0.1c0,0,0,0,0.1,0.1c0,0,0,0.1,0,0.1c0,0.1,0,0.2-0.1,0.2S3.1,11.6,3,11.6c-0.1,0-0.2,0-0.2-0.1
	c-0.1,0-0.1-0.1-0.1-0.2l0.1,0c0,0.1,0,0.1,0.1,0.1c0,0,0.1,0.1,0.2,0.1c0.1,0,0.1,0,0.2-0.1c0,0,0.1-0.1,0.1-0.2c0-0.1,0-0.1,0-0.1
	c0,0-0.1,0-0.1-0.1c0,0-0.1,0-0.1,0c0,0-0.1,0-0.1,0c0,0,0,0-0.1-0.1c0,0,0-0.1,0-0.1c0-0.1,0-0.1,0.1-0.2c0.1,0,0.1-0.1,0.2-0.1
	c0,0,0.1,0,0.1,0C3.2,10.6,3.2,10.7,3.2,10.8L3.2,10.8z M4.5,10.6v0.6c0,0.1,0,0.1,0,0.2c0,0,0,0.1,0,0.1c0,0-0.1,0.1-0.1,0.1
	s-0.1,0-0.2,0c-0.1,0-0.1,0-0.2,0c-0.1,0-0.1-0.1-0.1-0.1c0,0,0-0.1,0-0.1c0,0,0-0.1,0-0.2v-0.6h0.1v0.5c0,0.1,0,0.1,0,0.1
	c0,0,0,0.1,0,0.1c0,0,0,0.1,0.1,0.1c0,0,0.1,0,0.1,0c0.1,0,0.1,0,0.1,0c0,0,0.1,0,0.1-0.1c0,0,0-0.1,0-0.1c0,0,0-0.1,0-0.1L4.5,10.6
	L4.5,10.6z M5.1,10.7L5.1,10.7c0,0,0.1-0.1,0.1-0.1c0,0,0.1,0,0.1,0c0,0,0.1,0,0.1,0l0,0.1c0,0,0,0-0.1,0
	C5.3,10.6,5.2,10.7,5.1,10.7C5.2,10.7,5.1,10.7,5.1,10.7c0,0.1,0,0.1,0,0.2c0,0,0,0.1,0,0.2v0.5H5v-1h0.1V10.7z M6.7,11.5L6.7,11.5
	l-0.1-0.2h0c0,0.1-0.1,0.1-0.2,0.1c-0.1,0-0.1,0.1-0.2,0.1c-0.1,0-0.1,0-0.2,0c-0.1,0-0.1-0.1-0.2-0.1c0,0-0.1-0.1-0.1-0.2
	c0-0.1,0-0.1,0-0.2c0-0.1,0-0.1,0-0.2c0-0.1,0.1-0.1,0.1-0.2c0,0,0.1-0.1,0.1-0.1c0.1,0,0.1,0,0.2,0c0.1,0,0.1,0,0.2,0
	c0.1,0,0.1,0.1,0.2,0.1h0v-0.2h0.1V11.5z M6.1,10.7c0,0-0.1,0.1-0.1,0.1c0,0-0.1,0.1-0.1,0.1c0,0,0,0.1,0,0.2c0,0.1,0,0.1,0,0.2
	s0,0.1,0.1,0.1c0,0,0.1,0.1,0.1,0.1c0,0,0.1,0,0.2,0c0.1,0,0.2,0,0.3-0.1c0.1-0.1,0.1-0.2,0.1-0.3c0-0.1,0-0.2-0.1-0.3
	s-0.2-0.1-0.3-0.1C6.1,10.6,6.1,10.7,6.1,10.7z M7.3,10.7L7.3,10.7c0-0.1,0.1-0.1,0.1-0.1c0,0,0.1,0,0.2,0c0.1,0,0.2,0,0.2,0.1
	c0,0.1,0.1,0.2,0.1,0.3v0.6H7.8V11c0,0,0-0.1,0-0.1c0,0,0-0.1,0-0.1c0,0,0-0.1-0.1-0.1c0,0-0.1,0-0.1,0c-0.1,0-0.1,0-0.1,0
	C7.4,10.7,7.4,10.7,7.3,10.7c0,0.1,0,0.1,0,0.2c0,0,0,0.1,0,0.2v0.5H7.2v-1h0.1V10.7z M9.2,10.8c-0.1-0.1-0.2-0.2-0.3-0.2
	c-0.1,0-0.1,0-0.2,0c0,0-0.1,0.1-0.1,0.1c0,0-0.1,0.1-0.1,0.1c0,0,0,0.1,0,0.2s0,0.1,0,0.2c0,0,0,0.1,0.1,0.1s0.1,0.1,0.1,0.1
	c0,0,0.1,0,0.2,0c0.1,0,0.1,0,0.2,0c0.1,0,0.1-0.1,0.2-0.1v0.1c0,0-0.1,0.1-0.2,0.1c-0.1,0-0.1,0-0.2,0c-0.1,0-0.1,0-0.2,0
	c-0.1,0-0.1-0.1-0.2-0.1c0,0-0.1-0.1-0.1-0.2c0-0.1,0-0.1,0-0.2c0-0.1,0-0.1,0-0.2c0-0.1,0.1-0.1,0.1-0.2c0,0,0.1-0.1,0.2-0.1
	c0.1,0,0.1,0,0.2,0c0.1,0,0.2,0,0.3,0.1V10.8z M9.7,11.1c0,0.1,0,0.2,0.1,0.3c0.1,0.1,0.2,0.1,0.3,0.1c0.1,0,0.1,0,0.2-0.1
	c0.1,0,0.1-0.1,0.1-0.2l0.1,0c0,0.1-0.1,0.1-0.2,0.2c-0.1,0-0.2,0.1-0.3,0.1c-0.1,0-0.1,0-0.2,0c-0.1,0-0.1-0.1-0.1-0.1
	c0,0-0.1-0.1-0.1-0.2C9.7,11.2,9.7,11.1,9.7,11.1c-0.1-0.1-0.1-0.1-0.1-0.2c0-0.1,0.1-0.1,0.1-0.2c0,0,0.1-0.1,0.1-0.1
	c0.1,0,0.1,0,0.2,0c0.1,0,0.1,0,0.2,0c0.1,0,0.1,0.1,0.1,0.1c0,0,0.1,0.1,0.1,0.2c0,0.1,0,0.1,0,0.2H9.7z M10.5,11c0,0,0-0.1,0-0.1
	c0,0,0-0.1-0.1-0.1c0,0-0.1-0.1-0.1-0.1c0,0-0.1,0-0.1,0c0,0-0.1,0-0.1,0c0,0-0.1,0-0.1,0.1c0,0-0.1,0.1-0.1,0.1c0,0,0,0.1,0,0.1
	H10.5z M12.2,11.4l0.3-0.8h0.1l-0.4,1l-0.4-1h0.1L12.2,11.4z M13.2,10.2C13.2,10.2,13.3,10.2,13.2,10.2c0,0.1,0,0.1,0,0.1
	c0,0,0,0-0.1,0c0,0,0,0-0.1,0c0,0,0,0,0-0.1c0,0,0,0,0-0.1C13.1,10.2,13.1,10.2,13.2,10.2C13.2,10.2,13.2,10.2,13.2,10.2z
	 M13.2,11.5L13.2,11.5l-0.1-1h0.1V11.5z M13.8,11.1c0,0.1,0,0.2,0.1,0.3c0.1,0.1,0.2,0.1,0.3,0.1c0.1,0,0.1,0,0.2-0.1
	c0.1,0,0.1-0.1,0.1-0.2l0.1,0c0,0.1-0.1,0.1-0.2,0.2c-0.1,0-0.2,0.1-0.3,0.1c-0.1,0-0.1,0-0.2,0c-0.1,0-0.1-0.1-0.1-0.1
	c0,0-0.1-0.1-0.1-0.2C13.7,11.2,13.7,11.1,13.8,11.1c-0.1-0.1-0.1-0.1-0.1-0.2c0-0.1,0.1-0.1,0.1-0.2c0,0,0.1-0.1,0.1-0.1
	c0.1,0,0.1,0,0.2,0c0.1,0,0.1,0,0.2,0c0.1,0,0.1,0.1,0.1,0.1c0,0,0.1,0.1,0.1,0.2c0,0.1,0,0.1,0,0.2H13.8z M14.6,11c0,0,0-0.1,0-0.1
	c0,0,0-0.1-0.1-0.1c0,0-0.1-0.1-0.1-0.1c0,0-0.1,0-0.1,0c0,0-0.1,0-0.1,0c0,0-0.1,0-0.1,0.1c0,0-0.1,0.1-0.1,0.1s0,0.1,0,0.1H14.6z
	 M17.1,11.1C17.2,11.1,17.2,11.1,17.1,11.1c0,0.1,0,0.1,0,0.1c0,0,0,0-0.1,0c0,0,0,0-0.1,0c0,0,0,0,0-0.1c0,0,0,0,0-0.1
	C17,11.1,17.1,11,17.1,11.1C17.1,11,17.1,11.1,17.1,11.1z M19.9,11.4l0.3-0.8h0.1l-0.4,1l-0.4-1h0.1L19.9,11.4z M21.3,10.6
	c0.1,0,0.1,0.1,0.2,0.1c0,0,0.1,0.1,0.1,0.2c0,0.1,0,0.1,0,0.2c0,0.1,0,0.1,0,0.2c0,0.1-0.1,0.1-0.1,0.2c0,0-0.1,0.1-0.2,0.1
	c-0.1,0-0.1,0-0.2,0c-0.1,0-0.1,0-0.2,0s-0.1-0.1-0.2-0.1c0,0-0.1-0.1-0.1-0.2c0-0.1,0-0.1,0-0.2c0-0.1,0-0.1,0-0.2
	c0-0.1,0.1-0.1,0.1-0.2c0,0,0.1-0.1,0.2-0.1c0.1,0,0.1,0,0.2,0C21.2,10.6,21.3,10.6,21.3,10.6z M21,10.7c0,0-0.1,0.1-0.1,0.1
	c0,0-0.1,0.1-0.1,0.1c0,0.1,0,0.1,0,0.2c0,0.1,0,0.1,0,0.2c0,0,0,0.1,0.1,0.1c0,0,0.1,0.1,0.1,0.1c0,0,0.1,0,0.2,0
	c0.1,0,0.1,0,0.2,0c0.1,0,0.1,0,0.1-0.1c0,0,0.1-0.1,0.1-0.1c0-0.1,0-0.1,0-0.2c0-0.1,0-0.1,0-0.2c0-0.1-0.1-0.1-0.1-0.1
	c0,0-0.1-0.1-0.1-0.1c-0.1,0-0.1,0-0.2,0C21.1,10.6,21,10.7,21,10.7z M21.9,10.6L21.9,10.6l0.5,0.9l0.4-0.9h0.1l-0.6,1.5h-0.1
	l0.2-0.5L21.9,10.6z M24.2,11.5L24.2,11.5l-0.1-0.2h0c0,0.1-0.1,0.1-0.2,0.1c-0.1,0-0.1,0.1-0.2,0.1c-0.1,0-0.1,0-0.2,0
	c-0.1,0-0.1-0.1-0.2-0.1c0,0-0.1-0.1-0.1-0.2c0-0.1,0-0.1,0-0.2c0-0.1,0-0.1,0-0.2c0-0.1,0.1-0.1,0.1-0.2c0,0,0.1-0.1,0.1-0.1
	c0.1,0,0.1,0,0.2,0c0.1,0,0.1,0,0.2,0c0.1,0,0.1,0.1,0.2,0.1h0v-0.2h0.1V11.5z M23.5,10.7c0,0-0.1,0.1-0.1,0.1c0,0-0.1,0.1-0.1,0.1
	c0,0,0,0.1,0,0.2c0,0.1,0,0.1,0,0.2c0,0.1,0,0.1,0.1,0.1c0,0,0.1,0.1,0.1,0.1c0,0,0.1,0,0.2,0c0.1,0,0.2,0,0.3-0.1
	c0.1-0.1,0.1-0.2,0.1-0.3c0-0.1,0-0.2-0.1-0.3s-0.2-0.1-0.3-0.1C23.6,10.6,23.6,10.7,23.5,10.7z M25.6,11.5c0,0.1,0,0.2,0,0.2
	c0,0.1,0,0.1-0.1,0.2c0,0.1-0.1,0.1-0.2,0.1c-0.1,0-0.1,0-0.2,0c-0.1,0-0.2,0-0.3-0.1c-0.1-0.1-0.1-0.2-0.1-0.3h0.1
	c0,0.1,0,0.2,0.1,0.2C24.9,12,25,12,25.1,12c0.1,0,0.1,0,0.2,0c0.1,0,0.1-0.1,0.1-0.1c0,0,0.1-0.1,0.1-0.2
	C25.5,11.6,25.5,11.6,25.6,11.5l-0.1-0.1h0c0,0.1-0.1,0.1-0.2,0.1s-0.1,0.1-0.2,0.1c-0.1,0-0.1,0-0.2,0s-0.1-0.1-0.1-0.1
	c0,0-0.1-0.1-0.1-0.2c0-0.1,0-0.1,0-0.2c0-0.1,0-0.1,0-0.2c0-0.1,0.1-0.1,0.1-0.2c0,0,0.1-0.1,0.2-0.1c0.1,0,0.1,0,0.2,0
	c0.1,0,0.3,0.1,0.4,0.2h0v-0.2h0.1V11.5z M25,10.7c0,0-0.1,0.1-0.1,0.1c0,0-0.1,0.1-0.1,0.1c0,0,0,0.1,0,0.2c0,0.1,0,0.1,0,0.2
	c0,0.1,0,0.1,0.1,0.1c0,0,0.1,0.1,0.1,0.1c0,0,0.1,0,0.2,0c0.1,0,0.2,0,0.3-0.1c0.1-0.1,0.1-0.2,0.1-0.3c0-0.1,0-0.2-0.1-0.3
	s-0.2-0.1-0.3-0.1C25.1,10.6,25,10.7,25,10.7z M26.2,11.1c0,0.1,0,0.2,0.1,0.3c0.1,0.1,0.2,0.1,0.3,0.1c0.1,0,0.1,0,0.2-0.1
	c0.1,0,0.1-0.1,0.1-0.2l0.1,0c0,0.1-0.1,0.1-0.2,0.2c-0.1,0-0.2,0.1-0.3,0.1c-0.1,0-0.1,0-0.2,0c-0.1,0-0.1-0.1-0.1-0.1
	c0,0-0.1-0.1-0.1-0.2C26.1,11.2,26.1,11.1,26.2,11.1c-0.1-0.1-0.1-0.1-0.1-0.2c0-0.1,0.1-0.1,0.1-0.2c0,0,0.1-0.1,0.1-0.1
	c0.1,0,0.1,0,0.2,0c0.1,0,0.1,0,0.2,0c0.1,0,0.1,0.1,0.1,0.1c0,0,0.1,0.1,0.1,0.2c0,0.1,0,0.1,0,0.2H26.2z M26.9,11c0,0,0-0.1,0-0.1
	c0,0,0-0.1-0.1-0.1c0,0-0.1-0.1-0.1-0.1c0,0-0.1,0-0.1,0c0,0-0.1,0-0.1,0c0,0-0.1,0-0.1,0.1c0,0-0.1,0.1-0.1,0.1c0,0,0,0.1,0,0.1
	H26.9z M29.5,11.1C29.5,11.1,29.5,11.1,29.5,11.1c0,0.1,0,0.1,0,0.1c0,0,0,0-0.1,0c0,0,0,0-0.1,0c0,0,0,0,0-0.1c0,0,0,0,0-0.1
	C29.4,11.1,29.4,11,29.5,11.1C29.4,11,29.5,11.1,29.5,11.1z M32.3,10.8C32.3,10.7,32.3,10.7,32.3,10.8c-0.1-0.1-0.1-0.1-0.2-0.1
	c0,0-0.1,0-0.1,0c0,0-0.1,0.1-0.1,0.1c0,0,0,0.1,0,0.1c0,0,0.1,0,0.1,0.1c0,0,0.1,0,0.1,0c0,0,0.1,0,0.1,0.1c0,0,0,0,0.1,0.1
	c0,0,0,0.1,0,0.1c0,0.1,0,0.2-0.1,0.2s-0.1,0.1-0.2,0.1c-0.1,0-0.2,0-0.2-0.1c-0.1,0-0.1-0.1-0.1-0.2l0.1,0c0,0.1,0,0.1,0.1,0.1
	c0,0,0.1,0.1,0.2,0.1c0.1,0,0.1,0,0.2-0.1c0,0,0.1-0.1,0.1-0.2c0-0.1,0-0.1,0-0.1c0,0-0.1,0-0.1-0.1c0,0-0.1,0-0.1,0
	c0,0-0.1,0-0.1,0c0,0,0,0-0.1-0.1c0,0,0-0.1,0-0.1c0-0.1,0-0.1,0.1-0.2c0.1,0,0.1-0.1,0.2-0.1c0,0,0.1,0,0.1,0
	C32.4,10.6,32.4,10.7,32.3,10.8L32.3,10.8z M33.8,11.5L33.8,11.5l-0.1-0.2h0c0,0.1-0.1,0.1-0.2,0.1s-0.1,0.1-0.2,0.1
	c-0.1,0-0.1,0-0.2,0c-0.1,0-0.1-0.1-0.2-0.1c0,0-0.1-0.1-0.1-0.2c0-0.1,0-0.1,0-0.2c0-0.1,0-0.1,0-0.2c0-0.1,0.1-0.1,0.1-0.2
	c0,0,0.1-0.1,0.1-0.1c0.1,0,0.1,0,0.2,0c0.1,0,0.1,0,0.2,0c0.1,0,0.1,0.1,0.2,0.1h0v-0.2h0.1V11.5z M33.2,10.7c0,0-0.1,0.1-0.1,0.1
	c0,0-0.1,0.1-0.1,0.1c0,0,0,0.1,0,0.2c0,0.1,0,0.1,0,0.2c0,0.1,0,0.1,0.1,0.1c0,0,0.1,0.1,0.1,0.1c0,0,0.1,0,0.2,0
	c0.1,0,0.2,0,0.3-0.1c0.1-0.1,0.1-0.2,0.1-0.3c0-0.1,0-0.2-0.1-0.3c-0.1-0.1-0.2-0.1-0.3-0.1C33.3,10.6,33.2,10.7,33.2,10.7z
	 M34.5,10.7L34.5,10.7c0-0.1,0.1-0.1,0.1-0.1c0,0,0.1,0,0.2,0c0.1,0,0.2,0,0.2,0.1c0,0.1,0.1,0.2,0.1,0.3v0.6H35V11c0,0,0-0.1,0-0.1
	c0,0,0-0.1,0-0.1c0,0,0-0.1-0.1-0.1c0,0-0.1,0-0.1,0c-0.1,0-0.1,0-0.1,0C34.6,10.7,34.5,10.7,34.5,10.7c0,0.1,0,0.1,0,0.2
	c0,0,0,0.1,0,0.2v0.5h-0.1v-1h0.1V10.7z M35.7,11.5L35.7,11.5l-0.1-0.9h-0.1v-0.1h0.1v-0.3h0.1v0.3h0.2v0.1h-0.2V11.5z M36.3,11.1
	c0,0.1,0,0.2,0.1,0.3c0.1,0.1,0.2,0.1,0.3,0.1c0.1,0,0.1,0,0.2-0.1c0.1,0,0.1-0.1,0.1-0.2l0.1,0c0,0.1-0.1,0.1-0.2,0.2
	c-0.1,0-0.2,0.1-0.3,0.1c-0.1,0-0.1,0-0.2,0c-0.1,0-0.1-0.1-0.1-0.1c0,0-0.1-0.1-0.1-0.2C36.2,11.2,36.2,11.1,36.3,11.1
	c-0.1-0.1-0.1-0.1-0.1-0.2c0-0.1,0.1-0.1,0.1-0.2c0,0,0.1-0.1,0.1-0.1c0.1,0,0.1,0,0.2,0c0.1,0,0.1,0,0.2,0c0.1,0,0.1,0.1,0.1,0.1
	c0,0,0.1,0.1,0.1,0.2c0,0.1,0,0.1,0,0.2H36.3z M37,11c0,0,0-0.1,0-0.1c0,0,0-0.1-0.1-0.1c0,0-0.1-0.1-0.1-0.1c0,0-0.1,0-0.1,0
	c0,0-0.1,0-0.1,0c0,0-0.1,0-0.1,0.1c0,0-0.1,0.1-0.1,0.1s0,0.1,0,0.1H37z M36.9,10.1l-0.3,0.3l-0.1,0l0.2-0.3L36.9,10.1z M53.5,9.8
	c0.5-2.5-1.1-4.6-3.8-5.2c0,0-0.8-0.2-0.8-0.2l0.7,0.4C52,5.3,53.9,7.5,53.5,9.8z M51.9,4.8c0,0,0.4,0.6,0.5,0.8
	c1.5,1.3,1.9,3.4,0.9,5c-1.2,2-4,2.6-6.2,1.5c-0.2-0.1-0.4-0.2-0.6-0.4c-0.4-0.3-0.8-0.7-1.1-1.1c-0.5-0.7-0.7-1.4-0.7-2.2
	c0-1.4,1-1.8,2.1-1.8c1.5,0,3.2,0.6,3.2,0.6l0,0c0,0,0,0,0,0L50.1,7c0,0-7.3-2.4-8.7-7l-0.3,0.2c0,0-2,9.6,5.7,12.5
	c2.5,1,5.5,0.3,6.9-1.9C54.9,8.8,54.1,6.1,51.9,4.8z M44.8,4c0.1,0.2,0.3,0.3,0.5,0.4c0.3,0.1,0.6,0.2,0.9,0.2
	c0.5,0,0.9-0.3,1.2-0.7c0.4-0.6,0.2-1.4-0.5-1.8c0,0,0,0,0,0c0,0,0,0,0,0c0,0-0.1,0-0.1-0.1c-0.7-0.4-1.6-0.1-2.1,0.5
	C44.4,2.9,44.5,3.5,44.8,4C44.8,3.9,44.8,3.9,44.8,4z"/>
</svg>
