<?xml version="1.0" encoding="utf-8"?>
<!-- Generator: Adobe Illustrator 26.2.1, SVG Export Plug-In . SVG Version: 6.00 Build 0)  -->
<svg version="1.1" id="Layer_7" xmlns="http://www.w3.org/2000/svg" xmlns:xlink="http://www.w3.org/1999/xlink" x="0px" y="0px"
	 viewBox="0 0 996.3 119.3" style="enable-background:new 0 0 996.3 119.3;" xml:space="preserve">
<style type="text/css">
	.st0{fill:#C49129;}
	.st1{fill:url(#SVGID_1_);}
	.st2{fill:url(#SVGID_00000088852150811693456580000007280826865953247405_);}
	.st3{fill:url(#SVGID_00000173883280304061138160000001250691916850336432_);}
	.st4{fill:url(#SVGID_00000140692725540699368030000002341738572305908914_);}
	.st5{fill:url(#SVGID_00000163785281119615229520000002806624340636992429_);}
	.st6{fill:url(#SVGID_00000064349202192964313810000002280471075986146720_);}
	.st7{fill:url(#SVGID_00000010306451059196784000000018013868109363700667_);}
	.st8{fill:url(#SVGID_00000159446790902403034450000013993322177462581391_);}
	.st9{fill:url(#SVGID_00000112616638623436561770000005252497600086804357_);}
	.st10{fill:url(#SVGID_00000165201432377132924250000002541033558220881289_);}
	.st11{fill:url(#SVGID_00000175296510657243030020000016346398951039497610_);}
	.st12{fill:url(#SVGID_00000043415249100129597610000012062948651480800403_);}
	.st13{fill:url(#SVGID_00000101819909142677097100000006389811890245126565_);}
	.st14{fill:url(#SVGID_00000054243817422880444020000005671643140806691467_);}
	.st15{fill:url(#SVGID_00000091708264488711078210000016826730397279483538_);}
	.st16{fill:url(#SVGID_00000175295975873830941660000001852045046068308097_);}
</style>
<g>
	<polygon class="st0" points="138.8,82.4 139.6,86.3 144.6,86 140.4,88.3 141.5,91.9 138.5,89.7 135.9,91.4 136.9,88.1 132.1,85.2 
		137.6,86.2 	"/>
	<polygon class="st0" points="247.9,20.9 248.3,22.7 250.5,22.5 248.7,23.5 249.1,25.1 247.8,24.1 246.7,24.9 247.1,23.5 245,22.2 
		247.4,22.6 	"/>
	<polygon class="st0" points="445.9,81.5 446.3,83.2 448.5,83 446.7,84.1 447.1,85.7 445.8,84.7 444.7,85.4 445.1,84 443,82.7 
		445.4,83.1 	"/>
	
		<radialGradient id="SVGID_1_" cx="988.9868" cy="77.9454" r="32.0609" gradientTransform="matrix(1 0 0 -1 0 119.7323)" gradientUnits="userSpaceOnUse">
		<stop  offset="7.376320e-02" style="stop-color:#DEB84A"/>
		<stop  offset="0.5114" style="stop-color:#C49129"/>
		<stop  offset="1" style="stop-color:#A87029"/>
	</radialGradient>
	<path class="st1" d="M976.9,54.5l4.1-9.9l-4.1-3.7l5.4-0.3l2.3-8.6l2.1,8.5l9.5-0.6l-8.2,4.8l2.2,6.6l-5.6-4.1L976.9,54.5z
		 M980.5,42.1l2.3,2.1l-2,4.7l3.7-3.5l3,2.2l-1.2-3.6l4-2.4l-4.8,0.3l-1.1-4.3l-1.1,4.2L980.5,42.1z"/>
	
		<radialGradient id="SVGID_00000120560132939510413490000006759877664037807269_" cx="933.9644" cy="94.0816" r="32.0609" gradientTransform="matrix(1 0 0 -1 0 119.7323)" gradientUnits="userSpaceOnUse">
		<stop  offset="7.376320e-02" style="stop-color:#DEB84A"/>
		<stop  offset="0.5114" style="stop-color:#C49129"/>
		<stop  offset="1" style="stop-color:#A87029"/>
	</radialGradient>
	<path style="fill:url(#SVGID_00000120560132939510413490000006759877664037807269_);" d="M921.9,38.4l4.1-9.9l-4.1-3.7l5.4-0.3
		l2.3-8.6l2.1,8.5l9.5-0.6l-8.2,4.8l2.2,6.6l-5.6-4.1L921.9,38.4z M925.4,26l2.3,2.1l-2,4.7l3.7-3.5l3,2.2l-1.2-3.6l4-2.4l-4.8,0.3
		l-1.1-4.3l-1.1,4.2L925.4,26z"/>
	
		<radialGradient id="SVGID_00000106833118123576109500000014802682017932541878_" cx="913.6416" cy="31.9359" r="32.0609" gradientTransform="matrix(1 0 0 -1 0 119.7323)" gradientUnits="userSpaceOnUse">
		<stop  offset="7.376320e-02" style="stop-color:#DEB84A"/>
		<stop  offset="0.5114" style="stop-color:#C49129"/>
		<stop  offset="1" style="stop-color:#A87029"/>
	</radialGradient>
	<path style="fill:url(#SVGID_00000106833118123576109500000014802682017932541878_);" d="M901.6,100.5l4.1-9.9l-4.1-3.7l5.4-0.3
		l2.3-8.6l2.1,8.5l9.5-0.6l-8.2,4.8l2.2,6.6l-5.6-4.1L901.6,100.5z M905.1,88.1l2.3,2.1l-2,4.7l3.7-3.5l3,2.2l-1.2-3.6l4-2.4
		l-4.8,0.3l-1.1-4.3l-1.1,4.2L905.1,88.1z"/>
	
		<radialGradient id="SVGID_00000150101318212708543570000007448314221672509077_" cx="774.6692" cy="13.1896" r="32.0609" gradientTransform="matrix(1 0 0 -1 0 119.7323)" gradientUnits="userSpaceOnUse">
		<stop  offset="7.376320e-02" style="stop-color:#DEB84A"/>
		<stop  offset="0.5114" style="stop-color:#C49129"/>
		<stop  offset="1" style="stop-color:#A87029"/>
	</radialGradient>
	<path style="fill:url(#SVGID_00000150101318212708543570000007448314221672509077_);" d="M762.6,119.3l4.1-9.9l-4.1-3.7l5.4-0.3
		l2.3-8.6l2.1,8.5l9.5-0.6l-8.2,4.8l2.2,6.6l-5.6-4.1L762.6,119.3z M766.1,106.9l2.3,2.1l-2,4.7l3.7-3.5l3,2.2l-1.2-3.6l4-2.4
		l-4.8,0.3l-1.1-4.3l-1.1,4.2L766.1,106.9z"/>
	
		<radialGradient id="SVGID_00000025408643039564817020000008020166847368258188_" cx="851.5127" cy="56.9334" r="27.1211" gradientTransform="matrix(1 0 0 -1 0 119.7323)" gradientUnits="userSpaceOnUse">
		<stop  offset="0" style="stop-color:#DEB84A"/>
		<stop  offset="0.4535" style="stop-color:#C49129"/>
		<stop  offset="1" style="stop-color:#A87029"/>
	</radialGradient>
	<path style="fill:url(#SVGID_00000025408643039564817020000008020166847368258188_);" d="M868.5,69.6l-8.9-7.1l-7.1,5.4l2.6-8.7
		l-7-4.8l8.8-0.1l2.1-9.8l2.9,9.7l7-0.2l-5.4,4.9L868.5,69.6z M859.6,60.3l4.3,3.4l-2.4-5.4l2.8-2.5l-3.6,0.1l-1.4-4.5l-1,4.6
		l-4.7,0.1l3.5,2.4l-1.4,4.7L859.6,60.3z"/>
	
		<radialGradient id="SVGID_00000071521617769785829210000014587786043671179669_" cx="777.0688" cy="92.0063" r="27.1211" gradientTransform="matrix(1 0 0 -1 0 119.7323)" gradientUnits="userSpaceOnUse">
		<stop  offset="0" style="stop-color:#DEB84A"/>
		<stop  offset="0.4535" style="stop-color:#C49129"/>
		<stop  offset="1" style="stop-color:#A87029"/>
	</radialGradient>
	<path style="fill:url(#SVGID_00000071521617769785829210000014587786043671179669_);" d="M794,34.5l-8.9-7.1l-7.1,5.4l2.6-8.7
		l-7-4.8l8.8-0.1l2.1-9.8l2.9,9.7l7-0.2l-5.4,4.9L794,34.5z M785.2,25.2l4.3,3.4l-2.4-5.4l2.8-2.5l-3.6,0.1l-1.4-4.5l-1,4.6
		l-4.7,0.1l3.5,2.4l-1.4,4.7L785.2,25.2z"/>
	
		<radialGradient id="SVGID_00000051341179776301988400000010913062552270853806_" cx="664.301" cy="92.0063" r="27.1211" gradientTransform="matrix(1 0 0 -1 0 119.7323)" gradientUnits="userSpaceOnUse">
		<stop  offset="0" style="stop-color:#DEB84A"/>
		<stop  offset="0.4535" style="stop-color:#C49129"/>
		<stop  offset="1" style="stop-color:#A87029"/>
	</radialGradient>
	<path style="fill:url(#SVGID_00000051341179776301988400000010913062552270853806_);" d="M681.3,34.5l-8.9-7.1l-7.1,5.4l2.6-8.7
		l-7-4.8l8.8-0.1l2.1-9.8l2.9,9.7l7-0.2l-5.4,4.9L681.3,34.5z M672.4,25.2l4.3,3.4l-2.4-5.4l2.8-2.5l-3.6,0.1l-1.4-4.5l-1,4.6
		l-4.7,0.1l3.5,2.4l-1.4,4.7L672.4,25.2z"/>
	
		<radialGradient id="SVGID_00000032622428927752186830000013816302557544383162_" cx="616.458" cy="24.5891" r="27.1211" gradientTransform="matrix(1 0 0 -1 0 119.7323)" gradientUnits="userSpaceOnUse">
		<stop  offset="0" style="stop-color:#DEB84A"/>
		<stop  offset="0.4535" style="stop-color:#C49129"/>
		<stop  offset="1" style="stop-color:#A87029"/>
	</radialGradient>
	<path style="fill:url(#SVGID_00000032622428927752186830000013816302557544383162_);" d="M633.4,101.9l-8.9-7.1l-7.1,5.4l2.6-8.7
		l-7-4.8l8.8-0.1l2.1-9.8l2.9,9.7l7-0.2l-5.4,4.9L633.4,101.9z M624.5,92.6l4.3,3.4l-2.4-5.4l2.8-2.5l-3.6,0.1l-1.4-4.5l-1,4.6
		l-4.7,0.1l3.5,2.4l-1.4,4.7L624.5,92.6z"/>
	
		<radialGradient id="SVGID_00000179612969872699217090000017513836605805677704_" cx="306.7073" cy="79.4557" r="27.1211" gradientTransform="matrix(1 0 0 -1 0 119.7323)" gradientUnits="userSpaceOnUse">
		<stop  offset="0" style="stop-color:#DEB84A"/>
		<stop  offset="0.4535" style="stop-color:#C49129"/>
		<stop  offset="1" style="stop-color:#A87029"/>
	</radialGradient>
	<path style="fill:url(#SVGID_00000179612969872699217090000017513836605805677704_);" d="M323.7,47l-8.9-7l-7.1,5.4l2.6-8.7l-7-4.8
		l8.8-0.1l2.1-9.8l2.9,9.7l7-0.2l-5.4,4.9L323.7,47z M314.8,37.7l4.3,3.4l-2.4-5.4l2.8-2.5l-3.6,0.1l-1.4-4.5l-1,4.6l-4.7,0.1
		l3.5,2.4l-1.4,4.7L314.8,37.7z"/>
	
		<radialGradient id="SVGID_00000130648122237845578710000018227588133071429550_" cx="102.2078" cy="91.4671" r="27.1211" gradientTransform="matrix(1 0 0 -1 0 119.7323)" gradientUnits="userSpaceOnUse">
		<stop  offset="0" style="stop-color:#DEB84A"/>
		<stop  offset="0.4535" style="stop-color:#C49129"/>
		<stop  offset="1" style="stop-color:#A87029"/>
	</radialGradient>
	<path style="fill:url(#SVGID_00000130648122237845578710000018227588133071429550_);" d="M119.2,35l-8.9-7.1l-7.1,5.4l2.6-8.7
		l-7-4.8l8.8-0.1l2.1-9.8l2.9,9.7l7-0.2l-5.4,4.9L119.2,35z M110.3,25.7l4.3,3.4l-2.4-5.4l2.8-2.5l-3.6,0.1l-1.4-4.5l-1,4.6
		l-4.7,0.1l3.5,2.4l-1.4,4.7L110.3,25.7z"/>
	
		<radialGradient id="SVGID_00000013883105919091992810000014213084901910679722_" cx="2.7546" cy="54.3704" r="27.1211" gradientTransform="matrix(1 0 0 -1 0 119.7323)" gradientUnits="userSpaceOnUse">
		<stop  offset="0" style="stop-color:#DEB84A"/>
		<stop  offset="0.4535" style="stop-color:#C49129"/>
		<stop  offset="1" style="stop-color:#A87029"/>
	</radialGradient>
	<path style="fill:url(#SVGID_00000013883105919091992810000014213084901910679722_);" d="M19.7,72.1L10.8,65l-7.1,5.4l2.6-8.7
		l-7-4.8l8.8-0.1l2.1-9.8l2.9,9.7l7-0.2l-5.4,4.9L19.7,72.1z M10.8,62.8l4.3,3.4l-2.4-5.4l2.8-2.5l-3.6,0.1l-1.4-4.5l-1,4.6
		l-4.7,0.1L8.3,61l-1.4,4.7L10.8,62.8z"/>
	
		<radialGradient id="SVGID_00000019678931136168504630000011002802599608902022_" cx="727.5312" cy="56.5718" r="28.3397" gradientTransform="matrix(1 0 0 -1 0 119.7323)" gradientUnits="userSpaceOnUse">
		<stop  offset="7.376320e-02" style="stop-color:#DEB84A"/>
		<stop  offset="0.5114" style="stop-color:#C49129"/>
		<stop  offset="1" style="stop-color:#A87029"/>
	</radialGradient>
	<path style="fill:url(#SVGID_00000019678931136168504630000011002802599608902022_);" d="M716.9,74.4l3.7-8.7l-3.6-3.3l4.8-0.2
		l2-7.6l1.9,7.5l8.4-0.5l-7.2,4.3l1.9,5.9l-5-3.6L716.9,74.4z M720,63.5l2.1,1.9l-1.7,4.2l3.3-3.1l2.7,2l-1-3.1l3.6-2.1l-4.2,0.3
		l-1-3.8l-1,3.8L720,63.5z"/>
	
		<radialGradient id="SVGID_00000168094727945864628960000002048925101873553813_" cx="205.5854" cy="38.6464" r="28.3397" gradientTransform="matrix(1 0 0 -1 0 119.7323)" gradientUnits="userSpaceOnUse">
		<stop  offset="7.376320e-02" style="stop-color:#DEB84A"/>
		<stop  offset="0.5114" style="stop-color:#C49129"/>
		<stop  offset="1" style="stop-color:#A87029"/>
	</radialGradient>
	<path style="fill:url(#SVGID_00000168094727945864628960000002048925101873553813_);" d="M194.9,92.3l3.7-8.7l-3.6-3.3l4.8-0.2
		l2-7.6l1.9,7.5l8.4-0.5l-7.2,4.3l1.9,5.9l-5-3.6L194.9,92.3z M198,81.4l2.1,1.9l-1.7,4.2l3.3-3.1l2.7,2l-1-3.1l3.6-2.1l-4.2,0.3
		l-1-3.8l-1,3.8L198,81.4z"/>
	
		<radialGradient id="SVGID_00000093172550431804385580000006707584433813994374_" cx="468.6223" cy="88.9968" r="28.3397" gradientTransform="matrix(1 0 0 -1 0 119.7323)" gradientUnits="userSpaceOnUse">
		<stop  offset="7.376320e-02" style="stop-color:#DEB84A"/>
		<stop  offset="0.5114" style="stop-color:#C49129"/>
		<stop  offset="1" style="stop-color:#A87029"/>
	</radialGradient>
	<path style="fill:url(#SVGID_00000093172550431804385580000006707584433813994374_);" d="M458,42l3.7-8.7l-3.6-3.3l4.8-0.2l2-7.6
		l1.9,7.5l8.4-0.5l-7.2,4.3l1.9,5.9l-5-3.6L458,42z M461.1,31l2.1,1.9l-1.7,4.2l3.3-3.1l2.7,2l-1-3.1l3.6-2.1l-4.2,0.3l-1-3.8
		l-1,3.8L461.1,31z"/>
	
		<radialGradient id="SVGID_00000095335829169947570940000005719201328954840723_" cx="543.5532" cy="56.6254" r="28.3397" gradientTransform="matrix(1 0 0 -1 0 119.7323)" gradientUnits="userSpaceOnUse">
		<stop  offset="7.376320e-02" style="stop-color:#DEB84A"/>
		<stop  offset="0.5114" style="stop-color:#C49129"/>
		<stop  offset="1" style="stop-color:#A87029"/>
	</radialGradient>
	<path style="fill:url(#SVGID_00000095335829169947570940000005719201328954840723_);" d="M532.9,74.3l3.7-8.7l-3.6-3.3l4.8-0.2
		l2-7.6l1.9,7.5l8.4-0.5l-7.2,4.3l1.9,5.9l-5-3.6L532.9,74.3z M536,63.4l2.1,1.9l-1.7,4.2l3.3-3.1l2.7,2l-1-3.1l3.6-2.1l-4.2,0.3
		l-1-3.8l-1,3.8L536,63.4z"/>
	
		<radialGradient id="SVGID_00000002386841915764368350000009161620335985719226_" cx="384.5464" cy="22.9934" r="28.3397" gradientTransform="matrix(1 0 0 -1 0 119.7323)" gradientUnits="userSpaceOnUse">
		<stop  offset="7.376320e-02" style="stop-color:#DEB84A"/>
		<stop  offset="0.5114" style="stop-color:#C49129"/>
		<stop  offset="1" style="stop-color:#A87029"/>
	</radialGradient>
	<path style="fill:url(#SVGID_00000002386841915764368350000009161620335985719226_);" d="M373.9,108l3.7-8.7L374,96l4.8-0.2l2-7.6
		l1.9,7.5l8.4-0.5l-7.2,4.3l1.9,5.9l-5-3.6L373.9,108z M377,97l2.1,1.9l-1.7,4.2l3.3-3.1l2.7,2l-1-3.1l3.6-2.1l-4.2,0.3l-1-3.8
		l-1,3.8L377,97z"/>
</g>
</svg>
