<svg xmlns="http://www.w3.org/2000/svg" viewBox="0 0 209.9 226.81"><defs><style>.cls-1{fill:none;stroke:#fff;stroke-miterlimit:10;stroke-width:12px;}</style></defs><title>PictoHadjOmra</title><g id="Calque_2" data-name="Calque 2"><g id="Calque_1-2" data-name="Calque 1"><g id="AXwOjt"><path class="cls-1" d="M18.92,80.07,7.46,84.57C5.56,80,6.83,77.68,11,75.8,40.53,62.39,70,48.64,99.57,35.38a14.19,14.19,0,0,1,10.49,0c29.63,13.27,59.05,27,88.62,40.44,3.93,1.79,5.75,3.9,4,8.77l-11.85-4.7c-2,6.58-.94,11.11,5.83,12.87,5.58,1.45,6.81,5.15,6.73,10.8-.32,25.23-.3,50.47-.08,75.7,0,4.68-1.43,6.82-5.68,8.36-29.53,10.78-59,21.78-88.61,32.51a12.73,12.73,0,0,1-8,.07C71.46,209.53,42,198.56,12.36,187.83c-4.11-1.49-5.85-3.58-5.8-8.33q.35-38.94,0-77.89c0-4.71,1.52-7.33,5.71-8.49C18.53,91.4,21.2,87.53,18.92,80.07ZM84.27,57.89l2,2.32c12.62-11.08,25.24-9.74,38.44-.81-.15-4.45,0-9.23-2.18-10.92C111.26,39.7,99.25,39.53,88,48.36,85.68,50.17,85.46,54.66,84.27,57.89ZM163.91,68c-1.26,10.45.44,12.3,13.8,15,1.63-9.94.48-11.19-13.8-15ZM72.36,55.81C57.28,61,56.3,62.23,59.64,71.2,75.51,63.82,73.66,66.88,72.36,55.81Zm64.45,0c-.38,10.66.4,11.47,14.28,15.31,1.45-10.53.16-12-14.28-15.28ZM46.07,67.71c-15.57,5.54-15.9,5.93-13.39,15.17,14-4,14.09-4.08,13.39-15.14Zm135.16,8.11c-1.38,10.09-1.06,10.64,6.45,11.2.52-5.07,1.71-10.43-6.45-11.17ZM128.14,51.46c-2.76,7.31-.88,12.24,6.15,11.16.4-5.11,1.66-10.73-6.15-11.13ZM48.88,74.69c7.52-.4,8.07-1.4,6.13-11.06-7.4.56-6.46,6-6.13,11.09ZM154.7,63.45c-1.53,10-1.13,10.74,6.33,11.54.56-5.35,1.32-10.86-6.33-11.5ZM22.46,87.73c8.22-1.47,7-6.52,6.23-11.72C20.62,76.76,22.51,82.4,22.46,87.73ZM82,51.4C74.5,54.07,74.27,54.61,76.65,63,84,62.1,82.68,56.94,82,51.4Z"/><path class="cls-1" d="M202.46,67C176.76,55.21,151,44.79,126.59,31.75c-15.38-8.21-28-8-43.2.1C61,43.77,37.5,53.34,14.45,63.85c-2.12,1-4.3,1.81-6.47,2.71-3.89-12.48-2.48-16.1,8.09-21C43.87,32.9,71.7,20.27,99.41,7.4a12,12,0,0,1,11.27,0c27.28,12.71,54.65,25.2,82,37.73C204.88,50.71,205.28,51.5,202.46,67Z"/></g></g></g></svg>