<svg xmlns="http://www.w3.org/2000/svg" viewBox="0 0 244.97 221.93"><defs><style>.cls-1{fill:none;stroke:#fff;stroke-miterlimit:10;stroke-width:7px;}</style></defs><title>PictoMacir3ayltek</title><g id="Calque_2" data-name="Calque 2"><g id="Calque_1-2" data-name="Calque 1"><path class="cls-1" d="M147.62,3.5h3.7c2.86,1.11,5.74,2.2,8.59,3.35a4.44,4.44,0,0,1,2.81,3.93c.46,4,.83,8.06,1.43,12.07.34,2.28.3,4.26-1.51,5.93a2,2,0,0,0-.41,2.8,1.93,1.93,0,0,0,.31.33,19.85,19.85,0,0,0,4.2,3.38,60.76,60.76,0,0,0,6.49,2.63c3.84,1.52,7.36,3.57,9,7.65,2.82,7.08,5.41,14.26,8.09,21.4a2.15,2.15,0,0,1-1,2.86c-2.12,1.41-2.11,1.51-1.39,4,.53,1.81,1.18,3.59,1.61,5.43a51.22,51.22,0,0,1,1.67,8.58c.32,6.11.24,12.24.34,18.36q.07,4.45.18,8.91c0,1.56,1.07,2.28,2.37,2.71a2.62,2.62,0,0,0,3.1-1.15c1.77-2.26,2.6-4.6,1.33-7.48a3.23,3.23,0,0,1,.11-2.67c2.6-3.74,5.1-7.71,10.34-7.91a1.79,1.79,0,0,0,1.74-1.84.86.86,0,0,0,0-.16,8.2,8.2,0,0,0-1.36-4.71,4.54,4.54,0,0,1-.89-2.68c.36-3.39.88-6.77,1.46-10.13.8-4.69,8.74-7.53,12.49-4.65a12,12,0,0,1,4.49,7.09c.7,3,1.48,5.94,2,9a62.88,62.88,0,0,0,6.56,19.16,2.75,2.75,0,0,1,.11,3,3.77,3.77,0,0,0-.24,2.1c.1,1.48.31,3,.5,4.43a45.41,45.41,0,0,1-.88,17.83,22.43,22.43,0,0,0,.07,12c1.69,6.29,3.35,12.6,5,18.89.46,1.72,1,3.43,1.45,5.14v4.33a5.61,5.61,0,0,1-1,.24c-2.33.11-4.66.23-7,.25-1.08,0-1.41.41-1.5,1.49-.56,6.87-1.2,25.42-1.79,32.29,0,.38-.07,1,.14,1.14,1.73,1.22,1,3,1,4.58a1.27,1.27,0,0,1-.81.93c-2.46.08-4.94.11-7.4,0A1.82,1.82,0,0,1,222,217a30.27,30.27,0,0,1-.35-4.66v-32.1c0-2.81.09-2.67-2.65-2.72-1.49,0-1.82.63-1.89,1.85-.3,5.66-.58,23-.91,28.69-.11,1.83-.4,3.66-.51,5.49a6,6,0,0,0,.3,2.3c.51,1.39,0,2.38-1.45,2.39H203.83c-1.27,0-1.78-.83-1.07-1.92a5.45,5.45,0,0,1,1.76-1.55c2.6-1.59,4.15-4.28,3.53-6.82s-.41-17-.26-19.62c.18-3.19.31-6.39.19-9.58-.09-2.57-1.19-3.62-3.72-3.88a51.13,51.13,0,0,0-5.67-.16c-2.83,0-3.63-.92-3.07-3.78.09-.48.34-.93.45-1.41.41-1.88.82-3.75,1.16-5.64a63.86,63.86,0,0,1,1.26-7.27c2.7-8.9,5.56-17.75,7-27a36.6,36.6,0,0,0,.37-12.22,20.19,20.19,0,0,0-1.29-3.37c-.58.77-.89,1.13-1.13,1.53-.79,1.35-1.55,2.72-2.33,4.08-2.11,3.71-5.85,4.64-9.35,2.33-1.22-.8-2.11-1.91-4-1.67-1.68.21-3.06-1.1-3.82-2.84-.23-.52-.87-.86-1.32-1.28-.52.62-1.38,1.18-1.49,1.86a26.06,26.06,0,0,0-.29,5.51c.2,3.46.57,6.91.9,10.36,1.55,16.1,2.64,35.66,3.16,51.83.16,5.08.56,10.17-.4,15.23a3.45,3.45,0,0,0,.6,1.94c.49,1,1.13,1.88,1.59,2.87a25.09,25.09,0,0,0,1.1,2.88,10.48,10.48,0,0,1,1.35,6.48q-.16,3-3,3H175.73a2.36,2.36,0,0,1-2.67-2s0-.05,0-.08a11.52,11.52,0,0,1-.19-4.53,5.2,5.2,0,0,0-1.06-4.61,9,9,0,0,1-1.65-6.63,19.1,19.1,0,0,0,0-4c-.68-6.8-1-17,.76-23.7a15.52,15.52,0,0,0-.46-8.54q-4.84-15.15-9.73-30.28c-.13-.41-.65-1.09-.75-1.05a3.27,3.27,0,0,0-1.43,1,2.72,2.72,0,0,0-.16,1.44c.09,5,.24,10,.26,15a14.33,14.33,0,0,1-1.84,7.38,13,13,0,0,0-1.78,7c.16,9.32.26,22.08.51,31.4.12,4.73.19,9.38-2.68,13.49a3.16,3.16,0,0,0-.36,1.91c.1,1.46.47,2.9.51,4.36a2.38,2.38,0,0,1-2.05,2.67,2.46,2.46,0,0,1-.47,0c-5.2,0-10.4.09-15.6,0-2.88,0-4.46-2.76-3.33-5.47a4.31,4.31,0,0,1,3.56-2.87,3.69,3.69,0,0,0,3.22-2.77,10.2,10.2,0,0,1,1.45-3.14,3.39,3.39,0,0,0,.73-3.45c-.5-1.75-.09-2.51,1.58-3.13a1.82,1.82,0,0,0,1.47-2.11,2,2,0,0,0-.15-.47,35,35,0,0,1-1.64-6.62c-.82-10.64-1.45-24.73-2.15-35.39-.49-7.46-.9-14.92-2.35-22.28a30.74,30.74,0,0,1-.21-13.16c1.69-7,1.32-14,.19-21.06a72,72,0,0,1-.63-17.23c.25-3.12-.27-6.31-.44-9.47l-.59-.17a11.38,11.38,0,0,0-1.15,2c-1.31,4-2.53,8.06-3.8,12.09-1.78,5.6-4,11-7.66,15.61-1.72,2.18-2.13,7.41-.59,9.38,1.66,2.13,1.86,4.62,2.35,7.06a1.63,1.63,0,0,1-.42,1.33,50.4,50.4,0,0,1-5.84,4.33c-2.09,1.21-3.34.31-3.78-2.14a28.56,28.56,0,0,0-1.25-5.06c-.82-2.17-2-4.2-2.87-6.36a20.63,20.63,0,0,0-4.71-7.42,12.38,12.38,0,0,1-3.27-5.16l-6.82-20.6c-.54-1.65-1.07-3.3-1.69-5.19a21.77,21.77,0,0,0-.84,9.75,81.93,81.93,0,0,0,4,16.64,7.36,7.36,0,0,1,.52,3.28,16.32,16.32,0,0,0,.76,7.84c3.37,10.43,6.8,20.85,10,31.31a123.94,123.94,0,0,1,3.35,13c.73,3.73.13,4.49-3.53,5.42-3.41.87-6.89,1.5-10.36,2.09-1.34.23-1.59.74-1.36,2a52.44,52.44,0,0,1-.11,20.66c-1.53,7-2.91,14-4.37,21a16.39,16.39,0,0,0,.13,8.54,3.15,3.15,0,0,0,2.14,2.35c1.28.37,1.76,1.33,1.58,2.82s-1,1.69-2.25,1.68H67.83c-.91,0-1.63-.22-1.67-1.27a8.84,8.84,0,0,1,1.22-5.7,10.29,10.29,0,0,0,1.73-7.44c-.25-2-.69-4-.89-6-.58-5.82-1-11.66-1.63-17.49-.41-4.12-1-8.23-.5-12.39.27-2.05.51-4.11.82-6.16.19-1.25-.23-1.64-1.47-1.67-3.65-.1-7.31-.31-11-.58a1.86,1.86,0,0,1-1.39-1,10.87,10.87,0,0,1,.45-6,25.08,25.08,0,0,0,1.08-3.81c.32-1.49.47-3,.79-4.52.66-3.17,1.42-6.32,2-9.49.27-1.39-.27-2-1.61-1.92a2.84,2.84,0,0,0-1.94,1,26.64,26.64,0,0,1-13.81,11c-1.24.46-1.44,1.41-1.46,2.57-.12,7-.27,14.05-.39,21.08-.2,11.44-.41,22.88-.57,34.32a2.72,2.72,0,0,1-2.13,2.94c-1.48.46-1.92,1.27-1.79,2.85A4.89,4.89,0,0,0,38,212.64a5.15,5.15,0,0,1,4.25,3.59c.45,1.23.1,1.66-1.16,1.66H17.82c-1.21,0-1.43-.44-1.47-1.57a39.74,39.74,0,0,0-.61-5.86c-.34-1.8-1-3.54-1.49-5.32-.63-2.32-1.21-4.77-.22-7,1.36-3.12,1.12-6.22.71-9.41a111.25,111.25,0,0,1-1.22-20.87c.19-3.19.06-6.4.09-9.59,0-1.14-.39-1.66-1.58-1.48a5,5,0,0,1-3.92-1.27,18,18,0,0,1-4.61-6v-1.89c1.81-4,3.7-8,5.4-12.14.76-1.83,1.61-3.29,3.71-3.52a1.34,1.34,0,0,0,.72-.31,9.14,9.14,0,0,1,5-2.21,1.27,1.27,0,0,0,1.22-1.32,1.34,1.34,0,0,0-.16-.56A3.65,3.65,0,0,0,18,125.89a8.32,8.32,0,0,1-3.69-4.28,51.47,51.47,0,0,1-1.77-6.69,5.28,5.28,0,0,1,1.48-5c1.75-1.71,3.53-3.39,5.43-4.92a5.77,5.77,0,0,1,5.87-.92,17.94,17.94,0,0,1,6.91,4.6,5.36,5.36,0,0,1,1.63,4c-.11,2.56-.31,5.12-.48,7.67a3.32,3.32,0,0,1-2.21,3.2,2.21,2.21,0,0,0-1.5,2.44,4.31,4.31,0,0,0,3.84,3.69,9.44,9.44,0,0,1,7.07,3.07c1.67,1.75,3.14,1.71,5,.21a15.8,15.8,0,0,0,1.48-1.35,7.32,7.32,0,0,0,2.46-6,8.74,8.74,0,0,1,.72-3.53,2.28,2.28,0,0,0-.82-3,3.45,3.45,0,0,1-1.56-3,56.22,56.22,0,0,1,.18-8,132.68,132.68,0,0,0,1.36-18.57,256.74,256.74,0,0,1,2.62-33.24,6.86,6.86,0,0,1,4.3-5.71,35.82,35.82,0,0,1,4.15-1.34c4.27-1.26,5.43-2.84,5.36-7.37V24A6.29,6.29,0,0,1,68,19.12a50,50,0,0,1,5-3.93,5,5,0,0,1,2.86-.77c4.83.26,8.17,2.6,10.14,7.3,2.44,5.83,3.45,12,4.57,18.13a8.35,8.35,0,0,1-.09,2.82c-.68,4.29-.72,4.34,3.4,5.59a9.92,9.92,0,0,1,7.15,6.55c1.68,4.93,3.65,9.76,5.21,14.73,2.42,7.67,4.63,15.4,6.88,23.13a17.31,17.31,0,0,0,3.19,6.06,4.25,4.25,0,0,0,.77-1.62q2.59-12.21,5.14-24.43c.23-1.11.46-2.19,2.06-2.4A5.38,5.38,0,0,1,122.81,65,110.69,110.69,0,0,1,130,43.92a8.88,8.88,0,0,1,5.17-4.74c2.11-.78,4.25-1.52,6.29-2.45a4.22,4.22,0,0,0,1.88-1.81c.6-1.22.14-1.83-1.2-2a1.29,1.29,0,0,1-1.34-1.24,1.23,1.23,0,0,1,0-.38,3.18,3.18,0,0,0-.1-1.59c-.8-1.73-1.65-3.43-2.58-5.09-.47-.85-.7-1.64.08-2.3a2.87,2.87,0,0,0,.85-3.05c-.38-2.08-.75-4.16-1.14-6.28l-.86.27c.13-1.2.2-2.27.38-3.33a3,3,0,0,1,2.32-2.68C142.72,6.65,145.06,4.84,147.62,3.5ZM75.32,198.29c.48,4,.86,7.84,1.42,11.66a5.22,5.22,0,0,0,3.52,4.36,1.61,1.61,0,0,0,1.48-.27c1.81-2.6,3.84-5.19,4.06-8.51.5-7.26,1.14-14.54-.5-21.76a11.45,11.45,0,0,1-.38-2.8c.1-4.54.32-9.08.41-13.61,0-2.59,0-5.19-.13-7.78,0-.79-.53-1.13-1.38-1-1.61.21-3.24.36-4.86.45-1,.06-1.34.37-1.25,1.49a91.09,91.09,0,0,1-.33,19.53c-.81,6.08-1.38,12.21-2.06,18.24Zm-17-76a7.6,7.6,0,0,0,.68-1.37c.92-5.37,1.76-10.75,1-16.23a14.21,14.21,0,0,1,1.08-8.43,11.33,11.33,0,0,0,.86-2.68c1-4.72.65-9.49.39-14.25a6.49,6.49,0,0,0-.52-2.08,4.48,4.48,0,0,0-.88-1.06,3.93,3.93,0,0,0-.62,1.16C58.65,88.92,57,100.4,55.44,111.92a14.67,14.67,0,0,0,1.05,7.93,13.88,13.88,0,0,0,1.86,2.45ZM177.32,73c0,.37-.06.64-.06.91A159.17,159.17,0,0,0,179,98.36a70.56,70.56,0,0,0,1.71,7.86,7,7,0,0,0,1.83,2.56,1,1,0,0,0,1.41.13,1,1,0,0,0,.31-.46,10.7,10.7,0,0,0,1-3.84,65,65,0,0,0-3.86-20A22,22,0,0,1,179.69,76a2.84,2.84,0,0,0-2.39-3Zm52.11,46.24c-2.57,1.06-2.46,6.41.21,9.41.16-3.24.57-6.31-.22-9.4Zm-202.72,87a24.35,24.35,0,0,0-2.55,3c-.89,1.5.64,3.65,2.38,3.49.24,0,.66-.3.67-.47a15.1,15.1,0,0,0-.51-6Z"/></g></g></svg>