<svg xmlns="http://www.w3.org/2000/svg" viewBox="0 0 196.18 274.48"><defs><style>.cls-1{fill:none;stroke:#fff;stroke-miterlimit:10;stroke-width:12px;}</style></defs><title>PictoAssuranceGroupe</title><g id="Calque_2" data-name="Calque 2"><g id="Calque_1-2" data-name="Calque 1"><path class="cls-1" d="M109.59,6h-23a4,4,0,0,0-3.84,4.1V55.24h30.71V10.1A4,4,0,0,0,109.59,6Z"/><path class="cls-1" d="M167.18,38.81H128.8V55.24h7.68a8.22,8.22,0,0,1,0,16.4H59.71a8.22,8.22,0,0,1,0-16.4h7.68V38.81H29c-12.7,0-23,11-23,24.61V243.87c0,13.57,10.33,24.61,23,24.61H167.18c12.7,0,23-11,23-24.61V63.42C190.21,49.85,179.88,38.81,167.18,38.81ZM98.09,96.24c16.93,0,30.71,14.71,30.71,32.81S115,161.86,98.09,161.86s-30.71-14.71-30.71-32.81S81.16,96.24,98.09,96.24Zm46.06,123a8,8,0,0,1-7.68,8.2H59.71a8,8,0,0,1-7.68-8.2v-4.1C52,190.27,71,170,94.25,170h7.68c23.28,0,42.22,20.24,42.22,45.11Z"/></g></g></svg>