<svg xmlns="http://www.w3.org/2000/svg" viewBox="0 0 193.17 223.83"><defs><style>.cls-1{fill:none;stroke:#fff;stroke-miterlimit:10;stroke-width:9px;isolation:isolate;}</style></defs><title>PictoTabibouhome</title><g id="Calque_2" data-name="Calque 2"><g id="Calque_1-2" data-name="Calque 1"><path class="cls-1" d="M162.41,138.88a26.58,26.58,0,0,0-26.36,26.81h0A27,27,0,0,0,141.51,182c-12.64,16.28-31.2,23.9-58,23.9-26.28,0-39.61-7.7-39.61-22.87,0-6,4.43-17.3,21.21-17.3,9.72,0,15.42-4.14,18.48-7.61,5.56-6.36,6.56-14.67,6.56-19.23h6.39v-14.7c39.3-8,65.84-50.07,65.84-73.94,0-15.12-4.58-26.84-13.63-34.83C133.93,2.32,112.56,4.5,109.69,4.86a13.4,13.4,0,1,0,13.18,13.61v0c5.59.75,12.14,2.65,17.21,7.12,6.07,5.33,9.07,13.6,9.07,24.65C149.15,68,123,112,83.42,112c-40.2,0-65.7-42.4-65.7-60.29,0-11,3.08-19.45,9.15-25,5-4.61,11.44-6.79,17-7.79A13.16,13.16,0,1,0,58.22,5a5.2,5.2,0,0,1-.51-.11c-1-.11-24-2.45-39.62,11.81-9,8.24-13.59,20-13.59,35.09,0,23.35,26.46,64.51,65.64,72.4v14.74H76.9c-.06,2.88-.71,7.44-3.25,10.28-1.88,2.1-4.7,3.11-8.63,3.11-22.36,0-34.42,15.84-34.42,30.75,0,13.56,6.86,36.31,52.83,36.31,30.85,0,53.29-9.51,68.43-29a26,26,0,0,0,10.51,2.22,26.82,26.82,0,0,0,0-53.63Z"/></g></g></svg>